<svg width="179" height="41" viewBox="0 0 179 41" fill="none" xmlns="http://www.w3.org/2000/svg">
<mask id="mask0_44_9" style="mask-type:luminance" maskUnits="userSpaceOnUse" x="0" y="0" width="40" height="41">
<path d="M0 0H40V41H0V0Z" fill="white"/>
</mask>
<g mask="url(#mask0_44_9)">
<path fill-rule="evenodd" clip-rule="evenodd" d="M13.715 0.516072C11.458 0.516072 9.29501 1.41207 7.69901 3.00807L6.7082e-06 10.7071V14.2311C6.7082e-06 16.7211 1.07001 18.9611 2.77401 20.5161C1.89888 21.3125 1.2 22.2832 0.722271 23.3657C0.244541 24.4483 -0.00148113 25.6188 6.7082e-06 26.8021V30.3261L7.69901 38.0241C8.51218 38.8374 9.48182 39.4773 10.5493 39.9053C11.6168 40.3333 12.76 40.5403 13.9098 40.514C15.0596 40.4876 16.1921 40.2284 17.2389 39.7519C18.2857 39.2755 19.225 38.5918 20 37.7421C20.7751 38.5917 21.7145 39.2753 22.7612 39.7516C23.808 40.228 24.9405 40.4872 26.0902 40.5135C27.24 40.5399 28.3831 40.3329 29.4506 39.905C30.5181 39.4771 31.4878 38.8372 32.301 38.0241L40 30.3261V26.8021C40 24.3121 38.93 22.0721 37.226 20.5161C38.101 19.7198 38.7998 18.7492 39.2775 17.6669C39.7553 16.5845 40.0014 15.4142 40 14.2311V10.7071L32.301 3.00707C31.4877 2.19396 30.518 1.55418 29.4504 1.12638C28.3829 0.698591 27.2397 0.491669 26.09 0.51812C24.9402 0.544571 23.8078 0.803848 22.7611 1.28028C21.7143 1.75672 20.7751 2.44042 20 3.29007C19.2037 2.41507 18.2332 1.71626 17.1508 1.23854C16.0684 0.760813 14.8981 0.514723 13.715 0.516072ZM25.759 20.5161C25.663 20.4282 25.5689 20.3382 25.477 20.2461L20 14.7701L14.523 20.2471C14.4311 20.3392 14.3371 20.4292 14.241 20.5171C14.337 20.6041 14.431 20.6941 14.523 20.7861L20 26.2621L25.477 20.7861C25.569 20.6931 25.663 20.6041 25.759 20.5161ZM22.222 30.3261V32.0081C22.2218 32.8117 22.4599 33.5974 22.9063 34.2658C23.3527 34.9341 23.9872 35.455 24.7297 35.7626C25.4722 36.0703 26.2892 36.1508 27.0774 35.9941C27.8657 35.8374 28.5897 35.4504 29.158 34.8821L35.556 28.4851V26.8021C35.5564 25.9982 35.3183 25.2123 34.8719 24.5437C34.4255 23.8752 33.7908 23.3541 33.0481 23.0464C32.3055 22.7387 31.4882 22.6583 30.6998 22.8152C29.9114 22.9721 29.1872 23.3594 28.619 23.9281L22.222 30.3261ZM17.778 30.3261L11.381 23.9281C10.8128 23.3595 10.0888 22.9722 9.30047 22.8153C8.51215 22.6583 7.69498 22.7387 6.95235 23.0462C6.20972 23.3538 5.57501 23.8747 5.12851 24.5431C4.68201 25.2115 4.4438 25.9973 4.44401 26.8011V28.4851L10.841 34.8821C11.4092 35.4506 12.1332 35.8379 12.9215 35.9949C13.7099 36.1519 14.527 36.0715 15.2697 35.7639C16.0123 35.4564 16.647 34.9354 17.0935 34.2671C17.54 33.5987 17.7782 32.8129 17.778 32.0091V30.3261ZM17.778 9.02407V10.7071L11.381 17.1041C10.8128 17.6726 10.0888 18.0599 9.30047 18.2169C8.51215 18.3739 7.69498 18.2935 6.95235 17.9859C6.20972 17.6784 5.57501 17.1574 5.12851 16.4891C4.68201 15.8207 4.4438 15.0349 4.44401 14.2311V12.5481L10.841 6.15107C11.4092 5.5825 12.1332 5.19522 12.9215 5.03825C13.7099 4.88128 14.527 4.96166 15.2697 5.26922C16.0123 5.57679 16.647 6.09771 17.0935 6.76609C17.54 7.43447 17.7782 8.22027 17.778 9.02407ZM28.619 17.1041L22.222 10.7071V9.02407C22.222 8.22048 22.4603 7.43493 22.9067 6.76676C23.3532 6.0986 23.9877 5.57782 24.7302 5.2703C25.4726 4.96278 26.2895 4.88232 27.0777 5.03909C27.8658 5.19587 28.5898 5.58284 29.158 6.15107L35.556 12.5481V14.2311C35.5562 15.0349 35.318 15.8207 34.8715 16.4891C34.425 17.1574 33.7903 17.6784 33.0477 17.9859C32.305 18.2935 31.4879 18.3739 30.6995 18.2169C29.9112 18.0599 29.1872 17.6726 28.619 17.1041Z" fill="#C7231A"/>
</g>
<path d="M54.3179 29.0001V12.2001H65.8019V15.2961H57.8699V18.8961H64.5899V21.7641H57.8699V25.8681H65.8979V29.0001H54.3179ZM67.1359 29.0241L71.5039 22.9881L67.3639 16.8801H71.7919L73.9399 20.5641L76.0279 16.8801H80.3479L76.3279 22.9161L80.6599 29.0001H76.1719L73.8199 25.3041L71.4319 28.9641L67.1359 29.0241ZM87.4289 29.3601C86.1329 29.3601 85.1089 28.9961 84.3569 28.2681C83.6129 27.5321 83.2409 26.4241 83.2409 24.9441V13.3881H86.7449V16.8801H89.7569V19.6881H86.7449V24.3081C86.7449 25.0201 86.8929 25.5201 87.1889 25.8081C87.4849 26.0961 87.8809 26.2401 88.3769 26.2401C88.6329 26.2401 88.8809 26.2121 89.1209 26.1561C89.3689 26.0921 89.5969 26.0041 89.8049 25.8921L90.2969 28.6521C89.9369 28.8521 89.5049 29.0201 89.0009 29.1561C88.4884 29.2943 87.9596 29.3629 87.4289 29.3601ZM80.7809 19.6881V16.8801H83.5889V19.6881H80.7809ZM97.9069 29.3601C96.5869 29.3601 95.4269 29.0921 94.4269 28.5561C93.4511 28.0434 92.64 27.2655 92.0869 26.3121C91.5269 25.3521 91.2469 24.2281 91.2469 22.9401C91.2469 22.0041 91.4069 21.1441 91.7269 20.3601C92.0401 19.598 92.5056 18.9079 93.0949 18.3321C93.6907 17.7536 94.3967 17.3007 95.1709 17.0001C95.9709 16.6801 96.8469 16.5201 97.7989 16.5201C98.8469 16.5201 99.7749 16.7041 100.583 17.0721C101.372 17.4197 102.067 17.9504 102.611 18.6201C103.147 19.2761 103.519 20.0481 103.727 20.9361C103.943 21.8241 103.963 22.7881 103.787 23.8281H94.4989C94.4989 24.3881 94.6429 24.8761 94.9309 25.2921C95.2269 25.7081 95.6389 26.0361 96.1669 26.2761C96.7029 26.5081 97.3269 26.6241 98.0389 26.6241C98.7429 26.6241 99.4149 26.5281 100.055 26.3361C100.701 26.1411 101.313 25.8455 101.867 25.4601L103.031 27.8601C102.647 28.1561 102.167 28.4201 101.591 28.6521C101.015 28.8761 100.403 29.0481 99.7549 29.1681C99.1467 29.2928 98.5277 29.3571 97.9069 29.3601ZM94.7029 21.4161H100.427C100.403 20.7041 100.151 20.1401 99.6709 19.7241C99.1989 19.3081 98.5469 19.1001 97.7149 19.1001C96.8829 19.1001 96.1909 19.3081 95.6389 19.7241C95.0949 20.1401 94.7829 20.7041 94.7029 21.4161ZM105.83 29.0001V16.8801H109.334V18.2481C109.798 17.6401 110.346 17.2001 110.978 16.9281C111.611 16.6574 112.293 16.5186 112.982 16.5201C114.11 16.5201 115.038 16.7441 115.766 17.1921C116.502 17.6321 117.046 18.2041 117.398 18.9081C117.758 19.6121 117.938 20.3521 117.938 21.1281V29.0001H114.434V22.2201C114.434 21.4521 114.218 20.8401 113.786 20.3841C113.362 19.9281 112.746 19.7001 111.938 19.7001C111.426 19.7001 110.974 19.8161 110.582 20.0481C110.19 20.2721 109.882 20.5881 109.658 20.9961C109.442 21.4041 109.334 21.8761 109.334 22.4121V29.0001H105.83ZM125.12 29.3481C124.04 29.3481 123.044 29.2081 122.132 28.9281C121.22 28.6401 120.44 28.2481 119.792 27.7521L120.932 25.3041C121.566 25.737 122.256 26.0802 122.984 26.3241C123.72 26.5641 124.428 26.6841 125.108 26.6841C125.78 26.6841 126.296 26.5841 126.656 26.3841C127.024 26.1761 127.208 25.8801 127.208 25.4961C127.208 25.1521 127.044 24.9001 126.716 24.7401C126.396 24.5721 125.772 24.3921 124.844 24.2001C123.244 23.9121 122.076 23.4601 121.34 22.8441C120.604 22.2201 120.236 21.3641 120.236 20.2761C120.236 19.5081 120.448 18.8321 120.872 18.2481C121.304 17.6641 121.896 17.2121 122.648 16.8921C123.4 16.5641 124.264 16.4001 125.24 16.4001C126.2 16.4001 127.104 16.5321 127.952 16.7961C128.808 17.0521 129.54 17.4121 130.148 17.8761L129.044 20.3361C128.704 20.0682 128.334 19.8426 127.94 19.6641C127.525 19.4698 127.091 19.3209 126.644 19.2201C126.212 19.1102 125.769 19.0538 125.324 19.0521C124.74 19.0521 124.268 19.1521 123.908 19.3521C123.548 19.5441 123.368 19.8161 123.368 20.1681C123.368 20.5201 123.532 20.7801 123.86 20.9481C124.188 21.1161 124.8 21.3001 125.696 21.5001C127.368 21.8521 128.556 22.3201 129.26 22.9041C129.972 23.4801 130.328 24.2921 130.328 25.3401C130.328 26.1481 130.108 26.8521 129.668 27.4521C129.236 28.0521 128.628 28.5201 127.844 28.8561C127.068 29.1841 126.16 29.3481 125.12 29.3481ZM132.533 29.0001V16.8801H136.037V29.0001H132.533ZM134.285 14.9601C133.732 14.9712 133.194 14.7791 132.773 14.4201C132.349 14.0521 132.137 13.5641 132.137 12.9561C132.137 12.3401 132.349 11.8521 132.773 11.4921C133.191 11.1263 133.73 10.9295 134.285 10.9401C134.84 10.9295 135.379 11.1263 135.797 11.4921C136.221 11.8521 136.433 12.3401 136.433 12.9561C136.433 13.5641 136.221 14.0521 135.797 14.4201C135.376 14.7791 134.838 14.9712 134.285 14.9601ZM144.647 29.3601C143.343 29.3601 142.187 29.0681 141.179 28.4841C140.198 27.9272 139.38 27.1249 138.803 26.1561C138.235 25.1802 137.941 24.0692 137.951 22.9401C137.951 22.0841 138.115 21.2721 138.443 20.5041C138.766 19.7347 139.24 19.0372 139.835 18.4521C140.435 17.8521 141.143 17.3801 141.959 17.0361C142.775 16.6921 143.671 16.5201 144.647 16.5201C145.951 16.5201 147.103 16.8121 148.103 17.3961C149.084 17.9534 149.9 18.7608 150.467 19.7361C151.043 20.7041 151.331 21.7721 151.331 22.9401C151.331 23.7881 151.167 24.6001 150.839 25.3761C150.514 26.1481 150.041 26.8492 149.447 27.4401C148.841 28.0413 148.124 28.5182 147.335 28.8441C146.519 29.1881 145.623 29.3601 144.647 29.3601ZM144.647 26.3241C145.263 26.3241 145.815 26.1881 146.303 25.9161C146.791 25.6361 147.175 25.2441 147.455 24.7401C147.735 24.2281 147.875 23.6281 147.875 22.9401C147.875 22.2441 147.735 21.6441 147.455 21.1401C147.196 20.6496 146.8 20.2451 146.315 19.9761C145.827 19.6961 145.271 19.5561 144.647 19.5561C144.023 19.5561 143.463 19.6961 142.967 19.9761C142.479 20.2481 142.095 20.6361 141.815 21.1401C141.543 21.6441 141.407 22.2441 141.407 22.9401C141.407 23.6361 141.547 24.2361 141.827 24.7401C142.107 25.2441 142.491 25.6361 142.979 25.9161C143.467 26.1881 144.023 26.3241 144.647 26.3241ZM153.235 29.0001V16.8801H156.739V18.2481C157.203 17.6401 157.751 17.2001 158.383 16.9281C159.016 16.6574 159.698 16.5186 160.387 16.5201C161.515 16.5201 162.443 16.7441 163.171 17.1921C163.907 17.6321 164.451 18.2041 164.803 18.9081C165.163 19.6121 165.343 20.3521 165.343 21.1281V29.0001H161.839V22.2201C161.839 21.4521 161.623 20.8401 161.191 20.3841C160.767 19.9281 160.151 19.7001 159.343 19.7001C158.831 19.7001 158.379 19.8161 157.987 20.0481C157.595 20.2721 157.287 20.5881 157.063 20.9961C156.847 21.4041 156.739 21.8761 156.739 22.4121V29.0001H153.235ZM172.526 29.3481C171.446 29.3481 170.45 29.2081 169.538 28.9281C168.626 28.6401 167.846 28.2481 167.198 27.7521L168.338 25.3041C168.972 25.737 169.662 26.0802 170.39 26.3241C171.126 26.5641 171.834 26.6841 172.514 26.6841C173.186 26.6841 173.702 26.5841 174.062 26.3841C174.43 26.1761 174.614 25.8801 174.614 25.4961C174.614 25.1521 174.45 24.9001 174.122 24.7401C173.802 24.5721 173.178 24.3921 172.25 24.2001C170.65 23.9121 169.482 23.4601 168.746 22.8441C168.01 22.2201 167.642 21.3641 167.642 20.2761C167.642 19.5081 167.854 18.8321 168.278 18.2481C168.71 17.6641 169.302 17.2121 170.054 16.8921C170.806 16.5641 171.67 16.4001 172.646 16.4001C173.606 16.4001 174.51 16.5321 175.358 16.7961C176.214 17.0521 176.946 17.4121 177.554 17.8761L176.45 20.3361C176.11 20.0682 175.74 19.8426 175.346 19.6641C174.931 19.4698 174.497 19.3209 174.05 19.2201C173.618 19.1102 173.175 19.0538 172.73 19.0521C172.146 19.0521 171.674 19.1521 171.314 19.3521C170.954 19.5441 170.774 19.8161 170.774 20.1681C170.774 20.5201 170.938 20.7801 171.266 20.9481C171.594 21.1161 172.206 21.3001 173.102 21.5001C174.774 21.8521 175.962 22.3201 176.666 22.9041C177.378 23.4801 177.734 24.2921 177.734 25.3401C177.734 26.1481 177.514 26.8521 177.074 27.4521C176.642 28.0521 176.034 28.5201 175.25 28.8561C174.474 29.1841 173.566 29.3481 172.526 29.3481Z" fill="white"/>
</svg>
